<svg xmlns="http://www.w3.org/2000/svg" xmlns:xlink="http://www.w3.org/1999/xlink" width="1920" zoomAndPan="magnify" viewBox="0 0 1440 374.999991" height="500" preserveAspectRatio="xMidYMid meet" version="1.0"><defs><g/><clipPath id="f2d836fe7f"><path d="M 31 126 L 278 126 L 278 348.421875 L 31 348.421875 Z M 31 126 " clip-rule="nonzero"/></clipPath><clipPath id="d9f3661257"><path d="M 9.296875 26.671875 L 314.546875 26.671875 L 314.546875 274 L 9.296875 274 Z M 9.296875 26.671875 " clip-rule="nonzero"/></clipPath></defs><g clip-path="url(#f2d836fe7f)"><path fill="#ffffff" d="M 234.074219 180.777344 C 241.667969 195.910156 245.945312 212.941406 245.945312 230.996094 C 245.945312 290.453125 199.722656 339.109375 141.238281 343.007812 C 143.917969 343.199219 146.640625 343.296875 149.367188 343.296875 C 220.066406 343.296875 277.390625 285.976562 277.390625 215.277344 C 277.390625 180.679688 263.621094 149.296875 241.332031 126.28125 L 215.253906 153.875 L 147.804688 223.511719 L 129.375 197.363281 L 31.464844 348.304688 L 132.820312 240.910156 L 151.90625 261.125 Z M 234.074219 180.777344 " fill-opacity="1" fill-rule="nonzero"/></g><g clip-path="url(#d9f3661257)"><path fill="#d31e26" d="M 314.480469 26.726562 L 155.804688 134.839844 L 137.847656 90.804688 L 52.941406 235.804688 L 52.605469 236.09375 C 45.011719 220.960938 40.734375 203.933594 40.734375 185.875 C 40.734375 126.417969 86.957031 77.761719 145.441406 73.867188 C 142.761719 73.675781 140.035156 73.574219 137.3125 73.574219 C 66.617188 73.582031 9.296875 130.90625 9.296875 201.597656 C 9.296875 228.066406 17.371094 252.644531 31.140625 273.027344 L 135.511719 167.539062 L 146.121094 183.984375 L 152.789062 194.394531 Z M 314.480469 26.726562 " fill-opacity="1" fill-rule="nonzero"/></g><g fill="#ffffff" fill-opacity="1"><g transform="translate(331.270512, 239.549984)"><g><path d="M 39.34375 -75.859375 C 48.875 -75.859375 56.707031 -73.925781 62.84375 -70.0625 C 68.988281 -66.195312 72.132812 -60.472656 72.28125 -52.890625 L 72.28125 -51.59375 L 49.859375 -51.59375 L 49.859375 -52.015625 C 49.859375 -54.179688 49.0625 -55.988281 47.46875 -57.4375 C 45.875 -58.882812 43.453125 -59.609375 40.203125 -59.609375 C 37.023438 -59.609375 34.585938 -59.132812 32.890625 -58.1875 C 31.191406 -57.25 30.34375 -56.097656 30.34375 -54.734375 C 30.34375 -52.773438 31.5 -51.328125 33.8125 -50.390625 C 36.125 -49.453125 39.84375 -48.476562 44.96875 -47.46875 C 50.96875 -46.238281 55.898438 -44.953125 59.765625 -43.609375 C 63.628906 -42.273438 67.003906 -40.09375 69.890625 -37.0625 C 72.785156 -34.03125 74.269531 -29.910156 74.34375 -24.703125 C 74.34375 -15.890625 71.363281 -9.351562 65.40625 -5.09375 C 59.445312 -0.832031 51.476562 1.296875 41.5 1.296875 C 29.875 1.296875 20.828125 -0.648438 14.359375 -4.546875 C 7.890625 -8.453125 4.65625 -15.351562 4.65625 -25.25 L 27.3125 -25.25 C 27.3125 -21.488281 28.285156 -18.976562 30.234375 -17.71875 C 32.179688 -16.457031 35.21875 -15.828125 39.34375 -15.828125 C 42.375 -15.828125 44.882812 -16.148438 46.875 -16.796875 C 48.863281 -17.453125 49.859375 -18.789062 49.859375 -20.8125 C 49.859375 -22.613281 48.753906 -23.96875 46.546875 -24.875 C 44.335938 -25.78125 40.742188 -26.738281 35.765625 -27.75 C 29.691406 -29.039062 24.664062 -30.390625 20.6875 -31.796875 C 16.71875 -33.210938 13.253906 -35.546875 10.296875 -38.796875 C 7.335938 -42.046875 5.859375 -46.453125 5.859375 -52.015625 C 5.859375 -60.179688 9.015625 -66.195312 15.328125 -70.0625 C 21.648438 -73.925781 29.65625 -75.859375 39.34375 -75.859375 Z M 39.34375 -75.859375 "/></g></g></g><g fill="#ffffff" fill-opacity="1"><g transform="translate(409.50875, 239.549984)"><g><path d="M 82.25 -30.015625 C 82.25 -19.828125 79.035156 -12.0625 72.609375 -6.71875 C 66.179688 -1.375 57.039062 1.296875 45.1875 1.296875 C 33.34375 1.296875 24.1875 -1.375 17.71875 -6.71875 C 11.25 -12.0625 8.015625 -19.828125 8.015625 -30.015625 L 8.015625 -74.5625 L 31.96875 -74.5625 L 31.96875 -30.34375 C 31.96875 -26.15625 33.085938 -22.8125 35.328125 -20.3125 C 37.566406 -17.820312 40.816406 -16.578125 45.078125 -16.578125 C 49.347656 -16.578125 52.617188 -17.84375 54.890625 -20.375 C 57.171875 -22.90625 58.3125 -26.226562 58.3125 -30.34375 L 58.3125 -74.5625 L 82.25 -74.5625 Z M 82.25 -30.015625 "/></g></g></g><g fill="#ffffff" fill-opacity="1"><g transform="translate(499.7753, 239.549984)"><g><path d="M 72.0625 0 L 72.0625 -26.875 C 72.0625 -30.195312 72.1875 -33.609375 72.4375 -37.109375 C 72.695312 -40.617188 72.96875 -43.566406 73.25 -45.953125 C 73.539062 -48.335938 73.722656 -49.851562 73.796875 -50.5 L 73.375 -50.5 L 59.609375 0 L 40.859375 0 L 26.984375 -50.390625 L 26.546875 -50.390625 C 26.617188 -49.742188 26.816406 -48.242188 27.140625 -45.890625 C 27.472656 -43.546875 27.78125 -40.617188 28.0625 -37.109375 C 28.351562 -33.609375 28.5 -30.195312 28.5 -26.875 L 28.5 0 L 6.5 0 L 6.5 -74.5625 L 40.3125 -74.5625 L 51.59375 -31.53125 L 52.015625 -31.53125 L 63.1875 -74.5625 L 95.796875 -74.5625 L 95.796875 0 Z M 72.0625 0 "/></g></g></g><g fill="#ffffff" fill-opacity="1"><g transform="translate(602.070162, 239.549984)"><g><path d="M 72.0625 0 L 72.0625 -26.875 C 72.0625 -30.195312 72.1875 -33.609375 72.4375 -37.109375 C 72.695312 -40.617188 72.96875 -43.566406 73.25 -45.953125 C 73.539062 -48.335938 73.722656 -49.851562 73.796875 -50.5 L 73.375 -50.5 L 59.609375 0 L 40.859375 0 L 26.984375 -50.390625 L 26.546875 -50.390625 C 26.617188 -49.742188 26.816406 -48.242188 27.140625 -45.890625 C 27.472656 -43.546875 27.78125 -40.617188 28.0625 -37.109375 C 28.351562 -33.609375 28.5 -30.195312 28.5 -26.875 L 28.5 0 L 6.5 0 L 6.5 -74.5625 L 40.3125 -74.5625 L 51.59375 -31.53125 L 52.015625 -31.53125 L 63.1875 -74.5625 L 95.796875 -74.5625 L 95.796875 0 Z M 72.0625 0 "/></g></g></g><g fill="#ffffff" fill-opacity="1"><g transform="translate(704.365024, 239.549984)"><g><path d="M 9.109375 0 L 9.109375 -74.5625 L 33.046875 -74.5625 L 33.046875 0 Z M 9.109375 0 "/></g></g></g><g fill="#ffffff" fill-opacity="1"><g transform="translate(746.518303, 239.549984)"><g><path d="M 50.9375 -55.484375 L 50.9375 0 L 26.984375 0 L 26.984375 -55.484375 L 2.5 -55.484375 L 2.5 -74.5625 L 75.328125 -74.5625 L 75.328125 -55.484375 Z M 50.9375 -55.484375 "/></g></g></g><g fill="#d31e26" fill-opacity="1"><g transform="translate(824.758765, 239.549984)"><g><path d="M 8.015625 -74.5625 L 72.5 -74.5625 L 72.5 -56.6875 L 31.96875 -56.6875 L 31.96875 -46.390625 L 66.65625 -46.390625 L 66.65625 -29.265625 L 31.96875 -29.265625 L 31.96875 -17.875 L 73.265625 -17.875 L 73.265625 0 L 8.015625 0 Z M 8.015625 -74.5625 "/></g></g></g><g fill="#d31e26" fill-opacity="1"><g transform="translate(902.997003, 239.549984)"><g><path d="M 8.015625 -74.5625 L 31.96875 -74.5625 L 31.96875 -19.078125 L 70.234375 -19.078125 L 70.234375 0 L 8.015625 0 Z M 8.015625 -74.5625 "/></g></g></g><g fill="#d31e26" fill-opacity="1"><g transform="translate(975.275261, 239.549984)"><g><path d="M 8.015625 -74.5625 L 72.5 -74.5625 L 72.5 -56.6875 L 31.96875 -56.6875 L 31.96875 -46.390625 L 66.65625 -46.390625 L 66.65625 -29.265625 L 31.96875 -29.265625 L 31.96875 -17.875 L 73.265625 -17.875 L 73.265625 0 L 8.015625 0 Z M 8.015625 -74.5625 "/></g></g></g><g fill="#d31e26" fill-opacity="1"><g transform="translate(1053.51351, 239.549984)"><g><path d="M 43.5625 -75.859375 C 54.613281 -75.859375 63.351562 -73.09375 69.78125 -67.5625 C 76.21875 -62.039062 79.4375 -54.148438 79.4375 -43.890625 L 56.578125 -43.890625 C 56.578125 -48.222656 55.4375 -51.65625 53.15625 -54.1875 C 50.882812 -56.71875 47.648438 -57.984375 43.453125 -57.984375 C 38.617188 -57.984375 35.0625 -56.460938 32.78125 -53.421875 C 30.507812 -50.390625 29.375 -46.164062 29.375 -40.75 L 29.375 -33.8125 C 29.375 -28.46875 30.507812 -24.257812 32.78125 -21.1875 C 35.0625 -18.113281 38.546875 -16.578125 43.234375 -16.578125 C 47.859375 -16.578125 51.363281 -17.769531 53.75 -20.15625 C 56.132812 -22.539062 57.328125 -25.898438 57.328125 -30.234375 L 79.4375 -30.234375 C 79.4375 -20.046875 76.3125 -12.242188 70.0625 -6.828125 C 63.8125 -1.410156 54.976562 1.296875 43.5625 1.296875 C 30.851562 1.296875 21.226562 -1.953125 14.6875 -8.453125 C 8.144531 -14.953125 4.875 -24.5625 4.875 -37.28125 C 4.875 -50 8.144531 -59.609375 14.6875 -66.109375 C 21.226562 -72.609375 30.851562 -75.859375 43.5625 -75.859375 Z M 43.5625 -75.859375 "/></g></g></g><g fill="#d31e26" fill-opacity="1"><g transform="translate(1137.820069, 239.549984)"><g><path d="M 50.9375 -55.484375 L 50.9375 0 L 26.984375 0 L 26.984375 -55.484375 L 2.5 -55.484375 L 2.5 -74.5625 L 75.328125 -74.5625 L 75.328125 -55.484375 Z M 50.9375 -55.484375 "/></g></g></g><g fill="#d31e26" fill-opacity="1"><g transform="translate(1216.058329, 239.549984)"><g><path d="M 78.78125 -51.6875 C 78.78125 -47.144531 77.550781 -43.03125 75.09375 -39.34375 C 72.644531 -35.65625 69.070312 -32.945312 64.375 -31.21875 L 80.953125 0 L 54.078125 0 L 40.859375 -27.203125 L 31.96875 -27.203125 L 31.96875 0 L 8.015625 0 L 8.015625 -74.5625 L 53.640625 -74.5625 C 58.992188 -74.5625 63.566406 -73.53125 67.359375 -71.46875 C 71.148438 -69.414062 74 -66.632812 75.90625 -63.125 C 77.820312 -59.625 78.78125 -55.8125 78.78125 -51.6875 Z M 54.40625 -50.71875 C 54.40625 -52.664062 53.753906 -54.289062 52.453125 -55.59375 C 51.148438 -56.894531 49.5625 -57.546875 47.6875 -57.546875 L 31.96875 -57.546875 L 31.96875 -43.78125 L 47.6875 -43.78125 C 49.5625 -43.78125 51.148438 -44.445312 52.453125 -45.78125 C 53.753906 -47.125 54.40625 -48.769531 54.40625 -50.71875 Z M 54.40625 -50.71875 "/></g></g></g><g fill="#d31e26" fill-opacity="1"><g transform="translate(1300.364888, 239.549984)"><g><path d="M 9.109375 0 L 9.109375 -74.5625 L 33.046875 -74.5625 L 33.046875 0 Z M 9.109375 0 "/></g></g></g><g fill="#d31e26" fill-opacity="1"><g transform="translate(1342.51819, 239.549984)"><g><path d="M 43.5625 -75.859375 C 54.613281 -75.859375 63.351562 -73.09375 69.78125 -67.5625 C 76.21875 -62.039062 79.4375 -54.148438 79.4375 -43.890625 L 56.578125 -43.890625 C 56.578125 -48.222656 55.4375 -51.65625 53.15625 -54.1875 C 50.882812 -56.71875 47.648438 -57.984375 43.453125 -57.984375 C 38.617188 -57.984375 35.0625 -56.460938 32.78125 -53.421875 C 30.507812 -50.390625 29.375 -46.164062 29.375 -40.75 L 29.375 -33.8125 C 29.375 -28.46875 30.507812 -24.257812 32.78125 -21.1875 C 35.0625 -18.113281 38.546875 -16.578125 43.234375 -16.578125 C 47.859375 -16.578125 51.363281 -17.769531 53.75 -20.15625 C 56.132812 -22.539062 57.328125 -25.898438 57.328125 -30.234375 L 79.4375 -30.234375 C 79.4375 -20.046875 76.3125 -12.242188 70.0625 -6.828125 C 63.8125 -1.410156 54.976562 1.296875 43.5625 1.296875 C 30.851562 1.296875 21.226562 -1.953125 14.6875 -8.453125 C 8.144531 -14.953125 4.875 -24.5625 4.875 -37.28125 C 4.875 -50 8.144531 -59.609375 14.6875 -66.109375 C 21.226562 -72.609375 30.851562 -75.859375 43.5625 -75.859375 Z M 43.5625 -75.859375 "/></g></g></g></svg>