<svg xmlns="http://www.w3.org/2000/svg" xmlns:xlink="http://www.w3.org/1999/xlink" width="1920" zoomAndPan="magnify" viewBox="0 0 1440 374.999991" height="500" preserveAspectRatio="xMidYMid meet" version="1.0"><defs><g/><clipPath id="976aab3876"><path d="M 25 118 L 305 118 L 305 369.570312 L 25 369.570312 Z M 25 118 " clip-rule="nonzero"/></clipPath><clipPath id="0173858fb7"><path d="M 0 5.070312 L 346.5 5.070312 L 346.5 285 L 0 285 Z M 0 5.070312 " clip-rule="nonzero"/></clipPath></defs><g clip-path="url(#976aab3876)"><path fill="#ffffff" d="M 254.972656 179.871094 C 263.582031 197.035156 268.4375 216.355469 268.4375 236.835938 C 268.4375 304.277344 216.003906 359.472656 149.664062 363.890625 C 152.703125 364.109375 155.792969 364.222656 158.882812 364.222656 C 239.082031 364.222656 304.101562 299.199219 304.101562 219.003906 C 304.101562 179.757812 288.484375 144.160156 263.203125 118.054688 L 233.621094 149.351562 L 157.113281 228.34375 L 136.207031 198.6875 L 25.144531 369.898438 L 140.113281 248.078125 L 161.765625 271.007812 Z M 254.972656 179.871094 " fill-opacity="1" fill-rule="nonzero"/></g><g clip-path="url(#0173858fb7)"><path fill="#d31e26" d="M 346.175781 5.125 L 166.1875 127.761719 L 145.816406 77.8125 L 49.507812 242.289062 L 49.125 242.617188 C 40.511719 225.453125 35.65625 206.136719 35.65625 185.652344 C 35.65625 118.210938 88.089844 63.015625 154.429688 58.597656 C 151.390625 58.382812 148.300781 58.269531 145.210938 58.269531 C 65.019531 58.277344 0 123.296875 0 203.488281 C 0 233.511719 9.160156 261.390625 24.777344 284.507812 L 143.167969 164.851562 L 155.203125 183.507812 L 162.765625 195.316406 Z M 346.175781 5.125 " fill-opacity="1" fill-rule="nonzero"/></g><g fill="#ffffff" fill-opacity="1"><g transform="translate(314.470513, 223.874985)"><g><path d="M 40.421875 -77.96875 C 50.222656 -77.96875 58.28125 -75.976562 64.59375 -72 C 70.90625 -68.03125 74.132812 -62.144531 74.28125 -54.34375 L 74.28125 -53.015625 L 51.234375 -53.015625 L 51.234375 -53.453125 C 51.234375 -55.679688 50.414062 -57.535156 48.78125 -59.015625 C 47.144531 -60.503906 44.65625 -61.25 41.3125 -61.25 C 38.050781 -61.25 35.546875 -60.765625 33.796875 -59.796875 C 32.054688 -58.835938 31.1875 -57.65625 31.1875 -56.25 C 31.1875 -54.238281 32.375 -52.75 34.75 -51.78125 C 37.125 -50.820312 40.945312 -49.820312 46.21875 -48.78125 C 52.382812 -47.519531 57.453125 -46.203125 61.421875 -44.828125 C 65.390625 -43.453125 68.859375 -41.203125 71.828125 -38.078125 C 74.804688 -34.960938 76.332031 -30.734375 76.40625 -25.390625 C 76.40625 -16.335938 73.34375 -9.617188 67.21875 -5.234375 C 61.09375 -0.847656 52.90625 1.34375 42.65625 1.34375 C 30.695312 1.34375 21.394531 -0.660156 14.75 -4.671875 C 8.113281 -8.679688 4.796875 -15.773438 4.796875 -25.953125 L 28.0625 -25.953125 C 28.0625 -22.085938 29.0625 -19.503906 31.0625 -18.203125 C 33.070312 -16.910156 36.191406 -16.265625 40.421875 -16.265625 C 43.546875 -16.265625 46.128906 -16.597656 48.171875 -17.265625 C 50.210938 -17.929688 51.234375 -19.304688 51.234375 -21.390625 C 51.234375 -23.242188 50.097656 -24.632812 47.828125 -25.5625 C 45.566406 -26.488281 41.875 -27.472656 36.75 -28.515625 C 30.507812 -29.847656 25.347656 -31.238281 21.265625 -32.6875 C 17.179688 -34.132812 13.617188 -36.53125 10.578125 -39.875 C 7.535156 -43.21875 6.015625 -47.742188 6.015625 -53.453125 C 6.015625 -61.847656 9.257812 -68.03125 15.75 -72 C 22.25 -75.976562 30.472656 -77.96875 40.421875 -77.96875 Z M 40.421875 -77.96875 "/></g></g></g><g fill="#ffffff" fill-opacity="1"><g transform="translate(394.874843, 223.874985)"><g><path d="M 84.53125 -30.84375 C 84.53125 -20.375 81.222656 -12.390625 74.609375 -6.890625 C 68.003906 -1.398438 58.613281 1.34375 46.4375 1.34375 C 34.257812 1.34375 24.847656 -1.398438 18.203125 -6.890625 C 11.554688 -12.390625 8.234375 -20.375 8.234375 -30.84375 L 8.234375 -76.625 L 32.859375 -76.625 L 32.859375 -31.1875 C 32.859375 -26.875 34.007812 -23.4375 36.3125 -20.875 C 38.613281 -18.320312 41.953125 -17.046875 46.328125 -17.046875 C 50.710938 -17.046875 54.070312 -18.34375 56.40625 -20.9375 C 58.75 -23.539062 59.921875 -26.957031 59.921875 -31.1875 L 59.921875 -76.625 L 84.53125 -76.625 Z M 84.53125 -30.84375 "/></g></g></g><g fill="#ffffff" fill-opacity="1"><g transform="translate(487.640508, 223.874985)"><g><path d="M 74.0625 0 L 74.0625 -27.625 C 74.0625 -31.039062 74.191406 -34.546875 74.453125 -38.140625 C 74.710938 -41.742188 74.988281 -44.769531 75.28125 -47.21875 C 75.582031 -49.664062 75.769531 -51.226562 75.84375 -51.90625 L 75.40625 -51.90625 L 61.25 0 L 41.984375 0 L 27.734375 -51.796875 L 27.28125 -51.796875 C 27.351562 -51.117188 27.554688 -49.570312 27.890625 -47.15625 C 28.234375 -44.75 28.550781 -41.742188 28.84375 -38.140625 C 29.144531 -34.546875 29.296875 -31.039062 29.296875 -27.625 L 29.296875 0 L 6.6875 0 L 6.6875 -76.625 L 41.4375 -76.625 L 53.015625 -32.40625 L 53.453125 -32.40625 L 64.9375 -76.625 L 98.453125 -76.625 L 98.453125 0 Z M 74.0625 0 "/></g></g></g><g fill="#ffffff" fill-opacity="1"><g transform="translate(592.767507, 223.874985)"><g><path d="M 74.0625 0 L 74.0625 -27.625 C 74.0625 -31.039062 74.191406 -34.546875 74.453125 -38.140625 C 74.710938 -41.742188 74.988281 -44.769531 75.28125 -47.21875 C 75.582031 -49.664062 75.769531 -51.226562 75.84375 -51.90625 L 75.40625 -51.90625 L 61.25 0 L 41.984375 0 L 27.734375 -51.796875 L 27.28125 -51.796875 C 27.351562 -51.117188 27.554688 -49.570312 27.890625 -47.15625 C 28.234375 -44.75 28.550781 -41.742188 28.84375 -38.140625 C 29.144531 -34.546875 29.296875 -31.039062 29.296875 -27.625 L 29.296875 0 L 6.6875 0 L 6.6875 -76.625 L 41.4375 -76.625 L 53.015625 -32.40625 L 53.453125 -32.40625 L 64.9375 -76.625 L 98.453125 -76.625 L 98.453125 0 Z M 74.0625 0 "/></g></g></g><g fill="#ffffff" fill-opacity="1"><g transform="translate(697.894507, 223.874985)"><g><path d="M 9.359375 0 L 9.359375 -76.625 L 33.96875 -76.625 L 33.96875 0 Z M 9.359375 0 "/></g></g></g><g fill="#ffffff" fill-opacity="1"><g transform="translate(741.214855, 223.874985)"><g><path d="M 52.34375 -57.03125 L 52.34375 0 L 27.734375 0 L 27.734375 -57.03125 L 2.5625 -57.03125 L 2.5625 -76.625 L 77.40625 -76.625 L 77.40625 -57.03125 Z M 52.34375 -57.03125 "/></g></g></g><g fill="#d31e26" fill-opacity="1"><g transform="translate(821.622828, 223.874985)"><g><path d="M 8.234375 -76.625 L 74.515625 -76.625 L 74.515625 -58.25 L 32.859375 -58.25 L 32.859375 -47.671875 L 68.5 -47.671875 L 68.5 -30.078125 L 32.859375 -30.078125 L 32.859375 -18.375 L 75.296875 -18.375 L 75.296875 0 L 8.234375 0 Z M 8.234375 -76.625 "/></g></g></g><g fill="#d31e26" fill-opacity="1"><g transform="translate(902.027157, 223.874985)"><g><path d="M 8.234375 -76.625 L 32.859375 -76.625 L 32.859375 -19.609375 L 72.171875 -19.609375 L 72.171875 0 L 8.234375 0 Z M 8.234375 -76.625 "/></g></g></g><g fill="#d31e26" fill-opacity="1"><g transform="translate(976.306507, 223.874985)"><g><path d="M 8.234375 -76.625 L 74.515625 -76.625 L 74.515625 -58.25 L 32.859375 -58.25 L 32.859375 -47.671875 L 68.5 -47.671875 L 68.5 -30.078125 L 32.859375 -30.078125 L 32.859375 -18.375 L 75.296875 -18.375 L 75.296875 0 L 8.234375 0 Z M 8.234375 -76.625 "/></g></g></g><g fill="#d31e26" fill-opacity="1"><g transform="translate(1056.710825, 223.874985)"><g><path d="M 44.765625 -77.96875 C 56.128906 -77.96875 65.113281 -75.125 71.71875 -69.4375 C 78.332031 -63.757812 81.640625 -55.648438 81.640625 -45.109375 L 58.140625 -45.109375 C 58.140625 -49.566406 56.96875 -53.09375 54.625 -55.6875 C 52.289062 -58.28125 48.96875 -59.578125 44.65625 -59.578125 C 39.6875 -59.578125 36.03125 -58.019531 33.6875 -54.90625 C 31.351562 -51.789062 30.1875 -47.445312 30.1875 -41.875 L 30.1875 -34.75 C 30.1875 -29.25 31.351562 -24.921875 33.6875 -21.765625 C 36.03125 -18.617188 39.613281 -17.046875 44.4375 -17.046875 C 49.1875 -17.046875 52.785156 -18.269531 55.234375 -20.71875 C 57.691406 -23.164062 58.921875 -26.617188 58.921875 -31.078125 L 81.640625 -31.078125 C 81.640625 -20.609375 78.425781 -12.585938 72 -7.015625 C 65.582031 -1.441406 56.503906 1.34375 44.765625 1.34375 C 31.703125 1.34375 21.8125 -2 15.09375 -8.6875 C 8.375 -15.375 5.015625 -25.25 5.015625 -38.3125 C 5.015625 -51.382812 8.375 -61.257812 15.09375 -67.9375 C 21.8125 -74.625 31.703125 -77.96875 44.765625 -77.96875 Z M 44.765625 -77.96875 "/></g></g></g><g fill="#d31e26" fill-opacity="1"><g transform="translate(1143.351521, 223.874985)"><g><path d="M 52.34375 -57.03125 L 52.34375 0 L 27.734375 0 L 27.734375 -57.03125 L 2.5625 -57.03125 L 2.5625 -76.625 L 77.40625 -76.625 L 77.40625 -57.03125 Z M 52.34375 -57.03125 "/></g></g></g><g fill="#d31e26" fill-opacity="1"><g transform="translate(1223.755828, 223.874985)"><g><path d="M 80.96875 -53.125 C 80.96875 -48.445312 79.703125 -44.210938 77.171875 -40.421875 C 74.648438 -36.640625 70.976562 -33.859375 66.15625 -32.078125 L 83.203125 0 L 55.578125 0 L 41.984375 -27.953125 L 32.859375 -27.953125 L 32.859375 0 L 8.234375 0 L 8.234375 -76.625 L 55.125 -76.625 C 60.625 -76.625 65.320312 -75.566406 69.21875 -73.453125 C 73.113281 -71.335938 76.046875 -68.476562 78.015625 -64.875 C 79.984375 -61.269531 80.96875 -57.351562 80.96875 -53.125 Z M 55.90625 -52.125 C 55.90625 -54.125 55.238281 -55.789062 53.90625 -57.125 C 52.570312 -58.46875 50.9375 -59.140625 49 -59.140625 L 32.859375 -59.140625 L 32.859375 -45 L 49 -45 C 50.9375 -45 52.570312 -45.679688 53.90625 -47.046875 C 55.238281 -48.421875 55.90625 -50.113281 55.90625 -52.125 Z M 55.90625 -52.125 "/></g></g></g><g fill="#d31e26" fill-opacity="1"><g transform="translate(1310.396524, 223.874985)"><g><path d="M 9.359375 0 L 9.359375 -76.625 L 33.96875 -76.625 L 33.96875 0 Z M 9.359375 0 "/></g></g></g><g fill="#d31e26" fill-opacity="1"><g transform="translate(1353.716848, 223.874985)"><g><path d="M 44.765625 -77.96875 C 56.128906 -77.96875 65.113281 -75.125 71.71875 -69.4375 C 78.332031 -63.757812 81.640625 -55.648438 81.640625 -45.109375 L 58.140625 -45.109375 C 58.140625 -49.566406 56.96875 -53.09375 54.625 -55.6875 C 52.289062 -58.28125 48.96875 -59.578125 44.65625 -59.578125 C 39.6875 -59.578125 36.03125 -58.019531 33.6875 -54.90625 C 31.351562 -51.789062 30.1875 -47.445312 30.1875 -41.875 L 30.1875 -34.75 C 30.1875 -29.25 31.351562 -24.921875 33.6875 -21.765625 C 36.03125 -18.617188 39.613281 -17.046875 44.4375 -17.046875 C 49.1875 -17.046875 52.785156 -18.269531 55.234375 -20.71875 C 57.691406 -23.164062 58.921875 -26.617188 58.921875 -31.078125 L 81.640625 -31.078125 C 81.640625 -20.609375 78.425781 -12.585938 72 -7.015625 C 65.582031 -1.441406 56.503906 1.34375 44.765625 1.34375 C 31.703125 1.34375 21.8125 -2 15.09375 -8.6875 C 8.375 -15.375 5.015625 -25.25 5.015625 -38.3125 C 5.015625 -51.382812 8.375 -61.257812 15.09375 -67.9375 C 21.8125 -74.625 31.703125 -77.96875 44.765625 -77.96875 Z M 44.765625 -77.96875 "/></g></g></g></svg>