<svg xmlns="http://www.w3.org/2000/svg" xmlns:xlink="http://www.w3.org/1999/xlink" width="1920" zoomAndPan="magnify" viewBox="0 0 1440 374.999991" height="500" preserveAspectRatio="xMidYMid meet" version="1.0"><defs><g/><clipPath id="063199b7a3"><path d="M 31 126 L 278 126 L 278 348.421875 L 31 348.421875 Z M 31 126 " clip-rule="nonzero"/></clipPath><clipPath id="e55432d516"><path d="M 9.296875 26.671875 L 314.546875 26.671875 L 314.546875 274 L 9.296875 274 Z M 9.296875 26.671875 " clip-rule="nonzero"/></clipPath></defs><g clip-path="url(#063199b7a3)"><path fill="#ffffff" d="M 234.074219 180.777344 C 241.667969 195.910156 245.945312 212.941406 245.945312 230.996094 C 245.945312 290.453125 199.722656 339.109375 141.238281 343.007812 C 143.917969 343.199219 146.640625 343.296875 149.367188 343.296875 C 220.066406 343.296875 277.390625 285.976562 277.390625 215.277344 C 277.390625 180.679688 263.621094 149.296875 241.332031 126.28125 L 215.253906 153.875 L 147.804688 223.511719 L 129.375 197.363281 L 31.464844 348.304688 L 132.820312 240.910156 L 151.90625 261.125 Z M 234.074219 180.777344 " fill-opacity="1" fill-rule="nonzero"/></g><g clip-path="url(#e55432d516)"><path fill="#d31e26" d="M 314.480469 26.726562 L 155.804688 134.839844 L 137.847656 90.804688 L 52.941406 235.804688 L 52.605469 236.09375 C 45.011719 220.960938 40.734375 203.933594 40.734375 185.875 C 40.734375 126.417969 86.957031 77.761719 145.441406 73.867188 C 142.761719 73.675781 140.035156 73.574219 137.3125 73.574219 C 66.617188 73.582031 9.296875 130.90625 9.296875 201.597656 C 9.296875 228.066406 17.371094 252.644531 31.140625 273.027344 L 135.511719 167.539062 L 146.121094 183.984375 L 152.789062 194.394531 Z M 314.480469 26.726562 " fill-opacity="1" fill-rule="nonzero"/></g><g fill="#ffffff" fill-opacity="1"><g transform="translate(314.470513, 236.64993)"><g><path d="M 38.609375 -74.46875 C 47.972656 -74.46875 55.664062 -72.566406 61.6875 -68.765625 C 67.71875 -64.972656 70.804688 -59.351562 70.953125 -51.90625 L 70.953125 -50.640625 L 48.9375 -50.640625 L 48.9375 -51.0625 C 48.9375 -53.1875 48.15625 -54.957031 46.59375 -56.375 C 45.03125 -57.789062 42.65625 -58.5 39.46875 -58.5 C 36.34375 -58.5 33.945312 -58.035156 32.28125 -57.109375 C 30.613281 -56.191406 29.78125 -55.0625 29.78125 -53.71875 C 29.78125 -51.800781 30.914062 -50.378906 33.1875 -49.453125 C 35.457031 -48.535156 39.109375 -47.582031 44.140625 -46.59375 C 50.023438 -45.382812 54.863281 -44.125 58.65625 -42.8125 C 62.457031 -41.5 65.773438 -39.351562 68.609375 -36.375 C 71.441406 -33.394531 72.894531 -29.351562 72.96875 -24.25 C 72.96875 -15.601562 70.039062 -9.1875 64.1875 -5 C 58.34375 -0.8125 50.523438 1.28125 40.734375 1.28125 C 29.316406 1.28125 20.4375 -0.632812 14.09375 -4.46875 C 7.75 -8.300781 4.578125 -15.070312 4.578125 -24.78125 L 26.8125 -24.78125 C 26.8125 -21.09375 27.765625 -18.628906 29.671875 -17.390625 C 31.585938 -16.148438 34.566406 -15.53125 38.609375 -15.53125 C 41.585938 -15.53125 44.050781 -15.847656 46 -16.484375 C 47.957031 -17.128906 48.9375 -18.441406 48.9375 -20.421875 C 48.9375 -22.191406 47.851562 -23.519531 45.6875 -24.40625 C 43.519531 -25.300781 39.992188 -26.242188 35.109375 -27.234375 C 29.148438 -28.503906 24.21875 -29.832031 20.3125 -31.21875 C 16.414062 -32.601562 13.015625 -34.890625 10.109375 -38.078125 C 7.203125 -41.273438 5.75 -45.601562 5.75 -51.0625 C 5.75 -59.070312 8.847656 -64.972656 15.046875 -68.765625 C 21.253906 -72.566406 29.109375 -74.46875 38.609375 -74.46875 Z M 38.609375 -74.46875 "/></g></g></g><g fill="#ffffff" fill-opacity="1"><g transform="translate(391.270401, 236.64993)"><g><path d="M 80.734375 -29.46875 C 80.734375 -19.46875 77.578125 -11.84375 71.265625 -6.59375 C 64.953125 -1.34375 55.984375 1.28125 44.359375 1.28125 C 32.722656 1.28125 23.734375 -1.34375 17.390625 -6.59375 C 11.046875 -11.84375 7.875 -19.46875 7.875 -29.46875 L 7.875 -73.1875 L 31.375 -73.1875 L 31.375 -29.78125 C 31.375 -25.664062 32.472656 -22.382812 34.671875 -19.9375 C 36.867188 -17.5 40.0625 -16.28125 44.25 -16.28125 C 48.4375 -16.28125 51.644531 -17.519531 53.875 -20 C 56.113281 -22.476562 57.234375 -25.738281 57.234375 -29.78125 L 57.234375 -73.1875 L 80.734375 -73.1875 Z M 80.734375 -29.46875 "/></g></g></g><g fill="#ffffff" fill-opacity="1"><g transform="translate(479.877477, 236.64993)"><g><path d="M 70.734375 0 L 70.734375 -26.375 C 70.734375 -29.644531 70.859375 -33 71.109375 -36.4375 C 71.359375 -39.875 71.625 -42.757812 71.90625 -45.09375 C 72.1875 -47.4375 72.363281 -48.929688 72.4375 -49.578125 L 72.015625 -49.578125 L 58.5 0 L 40.109375 0 L 26.484375 -49.46875 L 26.0625 -49.46875 C 26.132812 -48.820312 26.328125 -47.347656 26.640625 -45.046875 C 26.960938 -42.742188 27.265625 -39.875 27.546875 -36.4375 C 27.835938 -33 27.984375 -29.644531 27.984375 -26.375 L 27.984375 0 L 6.375 0 L 6.375 -73.1875 L 39.578125 -73.1875 L 50.640625 -30.953125 L 51.0625 -30.953125 L 62.015625 -73.1875 L 94.03125 -73.1875 L 94.03125 0 Z M 70.734375 0 "/></g></g></g><g fill="#ffffff" fill-opacity="1"><g transform="translate(580.291755, 236.64993)"><g><path d="M 70.734375 0 L 70.734375 -26.375 C 70.734375 -29.644531 70.859375 -33 71.109375 -36.4375 C 71.359375 -39.875 71.625 -42.757812 71.90625 -45.09375 C 72.1875 -47.4375 72.363281 -48.929688 72.4375 -49.578125 L 72.015625 -49.578125 L 58.5 0 L 40.109375 0 L 26.484375 -49.46875 L 26.0625 -49.46875 C 26.132812 -48.820312 26.328125 -47.347656 26.640625 -45.046875 C 26.960938 -42.742188 27.265625 -39.875 27.546875 -36.4375 C 27.835938 -33 27.984375 -29.644531 27.984375 -26.375 L 27.984375 0 L 6.375 0 L 6.375 -73.1875 L 39.578125 -73.1875 L 50.640625 -30.953125 L 51.0625 -30.953125 L 62.015625 -73.1875 L 94.03125 -73.1875 L 94.03125 0 Z M 70.734375 0 "/></g></g></g><g fill="#ffffff" fill-opacity="1"><g transform="translate(680.706009, 236.64993)"><g><path d="M 8.9375 0 L 8.9375 -73.1875 L 32.4375 -73.1875 L 32.4375 0 Z M 8.9375 0 "/></g></g></g><g fill="#ffffff" fill-opacity="1"><g transform="translate(722.084318, 236.64993)"><g><path d="M 50 -54.46875 L 50 0 L 26.484375 0 L 26.484375 -54.46875 L 2.453125 -54.46875 L 2.453125 -73.1875 L 73.9375 -73.1875 L 73.9375 -54.46875 Z M 50 -54.46875 "/></g></g></g><g fill="#ffffff" fill-opacity="1"><g transform="translate(798.884239, 236.64993)"><g/></g></g><g fill="#d31e26" fill-opacity="1"><g transform="translate(834.314229, 236.64993)"><g><path d="M 7.875 -73.1875 L 71.171875 -73.1875 L 71.171875 -55.640625 L 31.375 -55.640625 L 31.375 -45.53125 L 65.421875 -45.53125 L 65.421875 -28.71875 L 31.375 -28.71875 L 31.375 -17.546875 L 71.90625 -17.546875 L 71.90625 0 L 7.875 0 Z M 7.875 -73.1875 "/></g></g></g><g fill="#d31e26" fill-opacity="1"><g transform="translate(911.114117, 236.64993)"><g><path d="M 7.875 -73.1875 L 31.375 -73.1875 L 31.375 -18.71875 L 68.9375 -18.71875 L 68.9375 0 L 7.875 0 Z M 7.875 -73.1875 "/></g></g></g><g fill="#d31e26" fill-opacity="1"><g transform="translate(982.063602, 236.64993)"><g><path d="M 7.875 -73.1875 L 71.171875 -73.1875 L 71.171875 -55.640625 L 31.375 -55.640625 L 31.375 -45.53125 L 65.421875 -45.53125 L 65.421875 -28.71875 L 31.375 -28.71875 L 31.375 -17.546875 L 71.90625 -17.546875 L 71.90625 0 L 7.875 0 Z M 7.875 -73.1875 "/></g></g></g><g fill="#d31e26" fill-opacity="1"><g transform="translate(1058.863501, 236.64993)"><g><path d="M 42.765625 -74.46875 C 53.609375 -74.46875 62.1875 -71.753906 68.5 -66.328125 C 74.8125 -60.898438 77.96875 -53.148438 77.96875 -43.078125 L 55.53125 -43.078125 C 55.53125 -47.335938 54.410156 -50.707031 52.171875 -53.1875 C 49.941406 -55.664062 46.769531 -56.90625 42.65625 -56.90625 C 37.90625 -56.90625 34.410156 -55.414062 32.171875 -52.4375 C 29.941406 -49.457031 28.828125 -45.3125 28.828125 -40 L 28.828125 -33.1875 C 28.828125 -27.9375 29.941406 -23.804688 32.171875 -20.796875 C 34.410156 -17.785156 37.832031 -16.28125 42.4375 -16.28125 C 46.976562 -16.28125 50.414062 -17.445312 52.75 -19.78125 C 55.09375 -22.125 56.265625 -25.421875 56.265625 -29.671875 L 77.96875 -29.671875 C 77.96875 -19.679688 74.898438 -12.023438 68.765625 -6.703125 C 62.628906 -1.378906 53.960938 1.28125 42.765625 1.28125 C 30.285156 1.28125 20.832031 -1.910156 14.40625 -8.296875 C 7.988281 -14.679688 4.78125 -24.113281 4.78125 -36.59375 C 4.78125 -49.070312 7.988281 -58.503906 14.40625 -64.890625 C 20.832031 -71.273438 30.285156 -74.46875 42.765625 -74.46875 Z M 42.765625 -74.46875 "/></g></g></g><g fill="#d31e26" fill-opacity="1"><g transform="translate(1141.620163, 236.64993)"><g><path d="M 50 -54.46875 L 50 0 L 26.484375 0 L 26.484375 -54.46875 L 2.453125 -54.46875 L 2.453125 -73.1875 L 73.9375 -73.1875 L 73.9375 -54.46875 Z M 50 -54.46875 "/></g></g></g><g fill="#d31e26" fill-opacity="1"><g transform="translate(1218.420039, 236.64993)"><g><path d="M 77.328125 -50.734375 C 77.328125 -46.273438 76.117188 -42.234375 73.703125 -38.609375 C 71.296875 -34.992188 67.789062 -32.335938 63.1875 -30.640625 L 79.46875 0 L 53.078125 0 L 40.109375 -26.703125 L 31.375 -26.703125 L 31.375 0 L 7.875 0 L 7.875 -73.1875 L 52.65625 -73.1875 C 57.90625 -73.1875 62.390625 -72.175781 66.109375 -70.15625 C 69.835938 -68.132812 72.640625 -65.398438 74.515625 -61.953125 C 76.390625 -58.515625 77.328125 -54.773438 77.328125 -50.734375 Z M 53.40625 -49.78125 C 53.40625 -51.695312 52.765625 -53.289062 51.484375 -54.5625 C 50.210938 -55.84375 48.65625 -56.484375 46.8125 -56.484375 L 31.375 -56.484375 L 31.375 -42.96875 L 46.8125 -42.96875 C 48.65625 -42.96875 50.210938 -43.625 51.484375 -44.9375 C 52.765625 -46.25 53.40625 -47.863281 53.40625 -49.78125 Z M 53.40625 -49.78125 "/></g></g></g><g fill="#d31e26" fill-opacity="1"><g transform="translate(1301.176701, 236.64993)"><g><path d="M 8.9375 0 L 8.9375 -73.1875 L 32.4375 -73.1875 L 32.4375 0 Z M 8.9375 0 "/></g></g></g><g fill="#d31e26" fill-opacity="1"><g transform="translate(1342.55501, 236.64993)"><g><path d="M 42.765625 -74.46875 C 53.609375 -74.46875 62.1875 -71.753906 68.5 -66.328125 C 74.8125 -60.898438 77.96875 -53.148438 77.96875 -43.078125 L 55.53125 -43.078125 C 55.53125 -47.335938 54.410156 -50.707031 52.171875 -53.1875 C 49.941406 -55.664062 46.769531 -56.90625 42.65625 -56.90625 C 37.90625 -56.90625 34.410156 -55.414062 32.171875 -52.4375 C 29.941406 -49.457031 28.828125 -45.3125 28.828125 -40 L 28.828125 -33.1875 C 28.828125 -27.9375 29.941406 -23.804688 32.171875 -20.796875 C 34.410156 -17.785156 37.832031 -16.28125 42.4375 -16.28125 C 46.976562 -16.28125 50.414062 -17.445312 52.75 -19.78125 C 55.09375 -22.125 56.265625 -25.421875 56.265625 -29.671875 L 77.96875 -29.671875 C 77.96875 -19.679688 74.898438 -12.023438 68.765625 -6.703125 C 62.628906 -1.378906 53.960938 1.28125 42.765625 1.28125 C 30.285156 1.28125 20.832031 -1.910156 14.40625 -8.296875 C 7.988281 -14.679688 4.78125 -24.113281 4.78125 -36.59375 C 4.78125 -49.070312 7.988281 -58.503906 14.40625 -64.890625 C 20.832031 -71.273438 30.285156 -74.46875 42.765625 -74.46875 Z M 42.765625 -74.46875 "/></g></g></g></svg>