<svg xmlns="http://www.w3.org/2000/svg" xmlns:xlink="http://www.w3.org/1999/xlink" width="1920" zoomAndPan="magnify" viewBox="0 0 1440 374.999991" height="500" preserveAspectRatio="xMidYMid meet" version="1.0"><defs><g/><clipPath id="68ab37870c"><path d="M 301 118 L 581 118 L 581 369.570312 L 301 369.570312 Z M 301 118 " clip-rule="nonzero"/></clipPath><clipPath id="62f118bd12"><path d="M 276.152344 5.070312 L 622.652344 5.070312 L 622.652344 285 L 276.152344 285 Z M 276.152344 5.070312 " clip-rule="nonzero"/></clipPath><clipPath id="e6af8cff5b"><rect x="0" width="541" y="0" height="130"/></clipPath></defs><g clip-path="url(#68ab37870c)"><path fill="#ffffff" d="M 531.121094 179.871094 C 539.734375 197.035156 544.589844 216.355469 544.589844 236.835938 C 544.589844 304.277344 492.15625 359.472656 425.816406 363.890625 C 428.855469 364.109375 431.945312 364.222656 435.035156 364.222656 C 515.234375 364.222656 580.253906 299.199219 580.253906 219.003906 C 580.253906 179.757812 564.636719 144.160156 539.355469 118.054688 L 509.773438 149.351562 L 433.265625 228.34375 L 412.359375 198.6875 L 301.296875 369.898438 L 416.265625 248.078125 L 437.917969 271.007812 Z M 531.121094 179.871094 " fill-opacity="1" fill-rule="nonzero"/></g><g clip-path="url(#62f118bd12)"><path fill="#d31e26" d="M 622.328125 5.125 L 442.339844 127.761719 L 421.96875 77.8125 L 325.65625 242.289062 L 325.277344 242.617188 C 316.664062 225.453125 311.808594 206.136719 311.808594 185.652344 C 311.808594 118.210938 364.242188 63.015625 430.582031 58.597656 C 427.542969 58.382812 424.453125 58.269531 421.363281 58.269531 C 341.171875 58.277344 276.152344 123.296875 276.152344 203.488281 C 276.152344 233.511719 285.3125 261.390625 300.929688 284.507812 L 419.320312 164.851562 L 431.355469 183.507812 L 438.917969 195.316406 Z M 622.328125 5.125 " fill-opacity="1" fill-rule="nonzero"/></g><g transform="matrix(1, 0, 0, 1, 618, 140)"><g clip-path="url(#e6af8cff5b)"><g fill="#ffffff" fill-opacity="1"><g transform="translate(1.239018, 103.925368)"><g><path d="M 42.96875 -82.859375 C 53.382812 -82.859375 61.945312 -80.75 68.65625 -76.53125 C 75.363281 -72.3125 78.796875 -66.054688 78.953125 -57.765625 L 78.953125 -56.34375 L 54.453125 -56.34375 L 54.453125 -56.8125 C 54.453125 -59.1875 53.582031 -61.160156 51.84375 -62.734375 C 50.113281 -64.316406 47.472656 -65.109375 43.921875 -65.109375 C 40.441406 -65.109375 37.773438 -64.59375 35.921875 -63.5625 C 34.066406 -62.539062 33.140625 -61.28125 33.140625 -59.78125 C 33.140625 -57.644531 34.398438 -56.0625 36.921875 -55.03125 C 39.453125 -54.007812 43.519531 -52.945312 49.125 -51.84375 C 55.675781 -50.5 61.0625 -49.097656 65.28125 -47.640625 C 69.5 -46.179688 73.1875 -43.796875 76.34375 -40.484375 C 79.507812 -37.171875 81.128906 -32.671875 81.203125 -26.984375 C 81.203125 -17.359375 77.945312 -10.21875 71.4375 -5.5625 C 64.925781 -0.90625 56.226562 1.421875 45.34375 1.421875 C 32.632812 1.421875 22.75 -0.707031 15.6875 -4.96875 C 8.625 -9.226562 5.09375 -16.765625 5.09375 -27.578125 L 29.828125 -27.578125 C 29.828125 -23.472656 30.890625 -20.726562 33.015625 -19.34375 C 35.148438 -17.96875 38.46875 -17.28125 42.96875 -17.28125 C 46.28125 -17.28125 49.019531 -17.632812 51.1875 -18.34375 C 53.363281 -19.050781 54.453125 -20.515625 54.453125 -22.734375 C 54.453125 -24.703125 53.25 -26.175781 50.84375 -27.15625 C 48.4375 -28.144531 44.507812 -29.191406 39.0625 -30.296875 C 32.4375 -31.722656 26.953125 -33.203125 22.609375 -34.734375 C 18.265625 -36.273438 14.472656 -38.820312 11.234375 -42.375 C 8.003906 -45.925781 6.390625 -50.738281 6.390625 -56.8125 C 6.390625 -65.738281 9.84375 -72.3125 16.75 -76.53125 C 23.65625 -80.75 32.394531 -82.859375 42.96875 -82.859375 Z M 42.96875 -82.859375 "/></g></g></g><g fill="#ffffff" fill-opacity="1"><g transform="translate(86.701964, 103.925368)"><g><path d="M 89.84375 -32.796875 C 89.84375 -21.660156 86.332031 -13.171875 79.3125 -7.328125 C 72.289062 -1.492188 62.304688 1.421875 49.359375 1.421875 C 36.421875 1.421875 26.421875 -1.492188 19.359375 -7.328125 C 12.296875 -13.171875 8.765625 -21.660156 8.765625 -32.796875 L 8.765625 -81.4375 L 34.921875 -81.4375 L 34.921875 -33.140625 C 34.921875 -28.566406 36.144531 -24.914062 38.59375 -22.1875 C 41.039062 -19.46875 44.59375 -18.109375 49.25 -18.109375 C 53.90625 -18.109375 57.472656 -19.488281 59.953125 -22.25 C 62.441406 -25.007812 63.6875 -28.640625 63.6875 -33.140625 L 63.6875 -81.4375 L 89.84375 -81.4375 Z M 89.84375 -32.796875 "/></g></g></g><g fill="#ffffff" fill-opacity="1"><g transform="translate(185.303965, 103.925368)"><g><path d="M 78.71875 0 L 78.71875 -29.359375 C 78.71875 -32.984375 78.851562 -36.707031 79.125 -40.53125 C 79.40625 -44.363281 79.703125 -47.582031 80.015625 -50.1875 C 80.335938 -52.789062 80.535156 -54.445312 80.609375 -55.15625 L 80.140625 -55.15625 L 65.109375 0 L 44.625 0 L 29.46875 -55.046875 L 29 -55.046875 C 29.082031 -54.335938 29.300781 -52.695312 29.65625 -50.125 C 30.007812 -47.5625 30.34375 -44.363281 30.65625 -40.53125 C 30.96875 -36.707031 31.125 -32.984375 31.125 -29.359375 L 31.125 0 L 7.109375 0 L 7.109375 -81.4375 L 44.03125 -81.4375 L 56.34375 -34.453125 L 56.8125 -34.453125 L 69.015625 -81.4375 L 104.640625 -81.4375 L 104.640625 0 Z M 78.71875 0 "/></g></g></g><g fill="#ffffff" fill-opacity="1"><g transform="translate(297.044991, 103.925368)"><g><path d="M 78.71875 0 L 78.71875 -29.359375 C 78.71875 -32.984375 78.851562 -36.707031 79.125 -40.53125 C 79.40625 -44.363281 79.703125 -47.582031 80.015625 -50.1875 C 80.335938 -52.789062 80.535156 -54.445312 80.609375 -55.15625 L 80.140625 -55.15625 L 65.109375 0 L 44.625 0 L 29.46875 -55.046875 L 29 -55.046875 C 29.082031 -54.335938 29.300781 -52.695312 29.65625 -50.125 C 30.007812 -47.5625 30.34375 -44.363281 30.65625 -40.53125 C 30.96875 -36.707031 31.125 -32.984375 31.125 -29.359375 L 31.125 0 L 7.109375 0 L 7.109375 -81.4375 L 44.03125 -81.4375 L 56.34375 -34.453125 L 56.8125 -34.453125 L 69.015625 -81.4375 L 104.640625 -81.4375 L 104.640625 0 Z M 78.71875 0 "/></g></g></g><g fill="#ffffff" fill-opacity="1"><g transform="translate(408.786017, 103.925368)"><g><path d="M 9.9375 0 L 9.9375 -81.4375 L 36.109375 -81.4375 L 36.109375 0 Z M 9.9375 0 "/></g></g></g><g fill="#ffffff" fill-opacity="1"><g transform="translate(454.831831, 103.925368)"><g><path d="M 55.640625 -60.609375 L 55.640625 0 L 29.46875 0 L 29.46875 -60.609375 L 2.71875 -60.609375 L 2.71875 -81.4375 L 82.265625 -81.4375 L 82.265625 -60.609375 Z M 55.640625 -60.609375 "/></g></g></g></g></g><g fill="#ffffff" fill-opacity="1"><g transform="translate(759.206737, 300.153643)"><g><path d="M 27.296875 -3.421875 L 27.296875 0 L 4.890625 0 L 4.890625 -33.6875 L 26.8125 -33.6875 L 26.8125 -30.28125 L 9.078125 -30.28125 L 9.078125 -18.5625 L 25.34375 -18.5625 L 25.34375 -15.140625 L 9.078125 -15.140625 L 9.078125 -3.421875 Z M 27.296875 -3.421875 "/></g></g></g><g fill="#ffffff" fill-opacity="1"><g transform="translate(792.503114, 300.153643)"><g><path d="M 27.296875 -3.421875 L 27.296875 0 L 4.890625 0 L 4.890625 -33.6875 L 9.078125 -33.6875 L 9.078125 -3.421875 Z M 27.296875 -3.421875 "/></g></g></g><g fill="#ffffff" fill-opacity="1"><g transform="translate(825.213645, 300.153643)"><g><path d="M 27.296875 -3.421875 L 27.296875 0 L 4.890625 0 L 4.890625 -33.6875 L 26.8125 -33.6875 L 26.8125 -30.28125 L 9.078125 -30.28125 L 9.078125 -18.5625 L 25.34375 -18.5625 L 25.34375 -15.140625 L 9.078125 -15.140625 L 9.078125 -3.421875 Z M 27.296875 -3.421875 "/></g></g></g><g fill="#ffffff" fill-opacity="1"><g transform="translate(858.510022, 300.153643)"><g><path d="M 18.21875 -34.375 C 21.082031 -34.375 23.488281 -33.875 25.4375 -32.875 C 27.394531 -31.882812 28.910156 -30.535156 29.984375 -28.828125 C 31.054688 -27.117188 31.707031 -25.160156 31.9375 -22.953125 L 31.984375 -22.46875 L 27.78125 -22.46875 L 27.6875 -22.953125 C 27.195312 -25.359375 26.175781 -27.3125 24.625 -28.8125 C 23.082031 -30.3125 20.910156 -31.0625 18.109375 -31.0625 C 15.835938 -31.0625 13.863281 -30.445312 12.1875 -29.21875 C 10.507812 -28 9.222656 -26.320312 8.328125 -24.1875 C 7.429688 -22.0625 6.984375 -19.628906 6.984375 -16.890625 C 6.984375 -14.128906 7.421875 -11.671875 8.296875 -9.515625 C 9.179688 -7.367188 10.4375 -5.6875 12.0625 -4.46875 C 13.6875 -3.25 15.609375 -2.640625 17.828125 -2.640625 C 20.617188 -2.640625 22.785156 -3.382812 24.328125 -4.875 C 25.878906 -6.375 26.898438 -8.332031 27.390625 -10.75 L 27.484375 -11.234375 L 31.6875 -11.234375 L 31.640625 -10.75 C 31.441406 -8.726562 30.789062 -6.84375 29.6875 -5.09375 C 28.582031 -3.351562 27.023438 -1.953125 25.015625 -0.890625 C 23.015625 0.160156 20.535156 0.6875 17.578125 0.6875 C 14.328125 0.6875 11.5625 -0.078125 9.28125 -1.609375 C 7 -3.140625 5.265625 -5.210938 4.078125 -7.828125 C 2.890625 -10.453125 2.296875 -13.410156 2.296875 -16.703125 C 2.296875 -20.117188 2.953125 -23.160156 4.265625 -25.828125 C 5.585938 -28.492188 7.441406 -30.582031 9.828125 -32.09375 C 12.222656 -33.613281 15.019531 -34.375 18.21875 -34.375 Z M 18.21875 -34.375 "/></g></g></g><g fill="#ffffff" fill-opacity="1"><g transform="translate(897.274271, 300.153643)"><g><path d="M 29.890625 -30.28125 L 17.875 -30.28125 L 17.875 0 L 13.671875 0 L 13.671875 -30.28125 L 1.65625 -30.28125 L 1.65625 -33.6875 L 29.890625 -33.6875 Z M 29.890625 -30.28125 "/></g></g></g><g fill="#ffffff" fill-opacity="1"><g transform="translate(931.791149, 300.153643)"><g><path d="M 27.046875 -8.84375 C 27.242188 -6.65625 27.492188 -4.863281 27.796875 -3.46875 C 28.109375 -2.070312 28.609375 -0.914062 29.296875 0 L 24.65625 0 C 24.195312 -1.070312 23.835938 -2.226562 23.578125 -3.46875 C 23.316406 -4.707031 23.078125 -6.367188 22.859375 -8.453125 C 22.660156 -10.171875 22.1875 -11.566406 21.4375 -12.640625 C 20.6875 -13.722656 19.484375 -14.328125 17.828125 -14.453125 C 17.429688 -14.484375 17.03125 -14.5 16.625 -14.5 C 16.21875 -14.5 15.820312 -14.5 15.4375 -14.5 L 9.078125 -14.5 L 9.078125 0 L 4.890625 0 L 4.890625 -33.6875 L 15.921875 -33.6875 C 16.765625 -33.6875 17.519531 -33.675781 18.1875 -33.65625 C 18.851562 -33.644531 19.5625 -33.59375 20.3125 -33.5 C 22.75 -33.175781 24.757812 -32.304688 26.34375 -30.890625 C 27.925781 -29.472656 28.71875 -27.347656 28.71875 -24.515625 C 28.71875 -23.046875 28.429688 -21.773438 27.859375 -20.703125 C 27.285156 -19.628906 26.539062 -18.75 25.625 -18.0625 C 24.71875 -17.382812 23.742188 -16.878906 22.703125 -16.546875 C 24.066406 -15.929688 25.097656 -14.914062 25.796875 -13.5 C 26.503906 -12.082031 26.921875 -10.53125 27.046875 -8.84375 Z M 9.078125 -17.921875 L 15.53125 -17.921875 C 16.28125 -17.921875 16.894531 -17.925781 17.375 -17.9375 C 17.863281 -17.957031 18.335938 -17.984375 18.796875 -18.015625 C 20.359375 -18.179688 21.648438 -18.769531 22.671875 -19.78125 C 23.703125 -20.789062 24.21875 -22.238281 24.21875 -24.125 C 24.21875 -26.007812 23.785156 -27.414062 22.921875 -28.34375 C 22.054688 -29.269531 20.84375 -29.847656 19.28125 -30.078125 C 18.46875 -30.210938 17.347656 -30.28125 15.921875 -30.28125 L 9.078125 -30.28125 Z M 9.078125 -17.921875 "/></g></g></g><g fill="#ffffff" fill-opacity="1"><g transform="translate(966.64977, 300.153643)"><g><path d="M 9.078125 0 L 4.890625 0 L 4.890625 -33.6875 L 9.078125 -33.6875 Z M 9.078125 0 "/></g></g></g><g fill="#ffffff" fill-opacity="1"><g transform="translate(984.177197, 300.153643)"><g><path d="M 18.21875 -34.375 C 21.082031 -34.375 23.488281 -33.875 25.4375 -32.875 C 27.394531 -31.882812 28.910156 -30.535156 29.984375 -28.828125 C 31.054688 -27.117188 31.707031 -25.160156 31.9375 -22.953125 L 31.984375 -22.46875 L 27.78125 -22.46875 L 27.6875 -22.953125 C 27.195312 -25.359375 26.175781 -27.3125 24.625 -28.8125 C 23.082031 -30.3125 20.910156 -31.0625 18.109375 -31.0625 C 15.835938 -31.0625 13.863281 -30.445312 12.1875 -29.21875 C 10.507812 -28 9.222656 -26.320312 8.328125 -24.1875 C 7.429688 -22.0625 6.984375 -19.628906 6.984375 -16.890625 C 6.984375 -14.128906 7.421875 -11.671875 8.296875 -9.515625 C 9.179688 -7.367188 10.4375 -5.6875 12.0625 -4.46875 C 13.6875 -3.25 15.609375 -2.640625 17.828125 -2.640625 C 20.617188 -2.640625 22.785156 -3.382812 24.328125 -4.875 C 25.878906 -6.375 26.898438 -8.332031 27.390625 -10.75 L 27.484375 -11.234375 L 31.6875 -11.234375 L 31.640625 -10.75 C 31.441406 -8.726562 30.789062 -6.84375 29.6875 -5.09375 C 28.582031 -3.351562 27.023438 -1.953125 25.015625 -0.890625 C 23.015625 0.160156 20.535156 0.6875 17.578125 0.6875 C 14.328125 0.6875 11.5625 -0.078125 9.28125 -1.609375 C 7 -3.140625 5.265625 -5.210938 4.078125 -7.828125 C 2.890625 -10.453125 2.296875 -13.410156 2.296875 -16.703125 C 2.296875 -20.117188 2.953125 -23.160156 4.265625 -25.828125 C 5.585938 -28.492188 7.441406 -30.582031 9.828125 -32.09375 C 12.222656 -33.613281 15.019531 -34.375 18.21875 -34.375 Z M 18.21875 -34.375 "/></g></g></g></svg>